<?xml version="1.0" encoding="UTF-8" standalone="no"?>
<!-- Created with Inkscape (http://www.inkscape.org/) -->

<svg
   xmlns:dc="http://purl.org/dc/elements/1.1/"
   xmlns:cc="http://creativecommons.org/ns#"
   xmlns:rdf="http://www.w3.org/1999/02/22-rdf-syntax-ns#"
   xmlns:svg="http://www.w3.org/2000/svg"
   xmlns="http://www.w3.org/2000/svg"
   xmlns:sodipodi="http://sodipodi.sourceforge.net/DTD/sodipodi-0.dtd"
   xmlns:inkscape="http://www.inkscape.org/namespaces/inkscape"
   width="391"
   height="69"
   viewBox="0 0 103.45207 18.25625"
   version="1.1"
   id="svg31"
   inkscape:version="0.92.3 (2405546, 2018-03-11)"
   sodipodi:docname="sidhharth-logo-w.svg">
  <defs
     id="defs25" />
  <sodipodi:namedview
     id="base"
     pagecolor="#ffffff"
     bordercolor="#666666"
     borderopacity="1.0"
     inkscape:pageopacity="0.0"
     inkscape:pageshadow="2"
     inkscape:zoom="1.979899"
     inkscape:cx="180.02444"
     inkscape:cy="87.051845"
     inkscape:document-units="mm"
     inkscape:current-layer="layer1"
     showgrid="false"
     units="px"
     inkscape:window-width="1366"
     inkscape:window-height="705"
     inkscape:window-x="-8"
     inkscape:window-y="-8"
     inkscape:window-maximized="1"
     inkscape:pagecheckerboard="true" />
  <metadata
     id="metadata28">
    <rdf:RDF>
      <cc:Work
         rdf:about="">
        <dc:format>image/svg+xml</dc:format>
        <dc:type
           rdf:resource="http://purl.org/dc/dcmitype/StillImage" />
        <dc:title></dc:title>
      </cc:Work>
    </rdf:RDF>
  </metadata>
  <g
     inkscape:label="Layer 1"
     inkscape:groupmode="layer"
     id="layer1"
     transform="translate(0,-278.74372)">
    <g
       id="g1920"
       transform="translate(-6.4393743,144.29015)">
      <g
         transform="matrix(0.71741617,0,0,0.71741617,-282.31548,-416.60623)"
         id="Layer1008">
        <path
           d="m 438.4834,779.2149 2.774,-0.006 v 0.1668 c 0,0.3457 0.0843,0.58 0.2531,0.7023 0.1688,0.1204 0.5231,0.1814 1.0631,0.1814 h 3.5292 c 0.3482,0 0.5948,-0.059 0.7426,-0.1772 0.1498,-0.1159 0.2237,-0.3101 0.2237,-0.5822 0,-0.2763 -0.0865,-0.4745 -0.2575,-0.5948 -0.1708,-0.1181 -0.538,-0.1982 -1.1032,-0.2405 l -4.4129,-0.0991 c -1.1054,-0.0316 -1.8522,-0.2426 -2.2405,-0.6309 -0.3902,-0.386 -0.5842,-1.0905 -0.5842,-2.1136 0,-0.5274 0.0507,-0.9618 0.154,-1.3036 0.1033,-0.3418 0.2679,-0.6265 0.4957,-0.8521 0.2679,-0.2553 0.6181,-0.4367 1.0506,-0.5444 0.4324,-0.1075 1.137,-0.1601 2.1114,-0.1601 h 4.2908 c 1.0632,0 1.8287,0.1939 2.2951,0.58 0.4683,0.3882 0.7023,1.0166 0.7023,1.8858 0,0.0571 -0.002,0.1181 -0.004,0.1856 -0.002,0.0654 -0.008,0.1729 -0.021,0.3207 h -2.7065 v -0.038 c 0,-0.3038 -0.0781,-0.5316 -0.2321,-0.6856 -0.1539,-0.1519 -0.386,-0.2278 -0.6961,-0.2278 h -3.2378 c -0.5403,0 -0.8966,0.0526 -1.0696,0.1604 -0.173,0.1075 -0.2595,0.2953 -0.2595,0.5632 0,0.2637 0.0781,0.4534 0.234,0.5716 0.1585,0.1181 0.4451,0.192 0.8672,0.2258 l 4.624,0.0737 c 1.0547,0.0296 1.797,0.2659 2.2275,0.711 0.4303,0.445 0.6455,1.2045 0.6455,2.2802 0,0.6393 -0.0803,1.1328 -0.2384,1.483 -0.1582,0.3502 -0.4261,0.6497 -0.7995,0.8965 -0.2469,0.1562 -0.5844,0.2679 -1.0083,0.3376 -0.424,0.0675 -1.0379,0.1011 -1.8415,0.1011 h -3.7464 c -1.5357,0 -2.563,-0.173 -3.0842,-0.5167 -0.5189,-0.3438 -0.7784,-0.9851 -0.7784,-1.9239 0,-0.0549 0.004,-0.1433 0.0106,-0.2699 0.006,-0.1245 0.0148,-0.2785 0.0274,-0.4599 z m 16.0001,3.0587 h -2.8117 v -9.2014 h 2.8117 z m 9.2141,-6.9338 h -4.4065 v 4.6956 h 4.7589 c 0.597,0 1.0335,-0.1223 1.31,-0.3648 0.2763,-0.2426 0.4134,-0.6245 0.4134,-1.1434 v -1.6179 c 0,-0.54 -0.1688,-0.9366 -0.5041,-1.1897 -0.3356,-0.2533 -0.8588,-0.3798 -1.5717,-0.3798 z m 0.8585,-2.2676 c 1.4049,0 2.426,0.2468 3.0651,0.7384 0.6393,0.4912 0.9578,1.2761 0.9578,2.3518 v 3.1623 c 0,1.0231 -0.2552,1.7696 -0.7658,2.2401 -0.5106,0.4725 -1.3226,0.7088 -2.4342,0.7088 h -8.8935 v -9.2014 z m 12.8972,2.2676 h -4.4065 v 4.6956 h 4.7589 c 0.597,0 1.0335,-0.1223 1.31,-0.3648 0.2763,-0.2426 0.4134,-0.6245 0.4134,-1.1434 v -1.6179 c 0,-0.54 -0.1688,-0.9366 -0.5041,-1.1897 -0.3356,-0.2533 -0.8588,-0.3798 -1.5717,-0.3798 z m 0.8585,-2.2676 c 1.4049,0 2.426,0.2468 3.0651,0.7384 0.6393,0.4912 0.9578,1.2761 0.9578,2.3518 v 3.1623 c 0,1.0231 -0.2552,1.7696 -0.7658,2.2401 -0.5106,0.4725 -1.3226,0.7088 -2.4342,0.7088 h -8.8935 v -9.2014 z m 8.4907,9.2014 h -2.8056 v -9.2014 h 2.8056 v 3.3794 h 5.7588 v -3.3794 h 2.8246 v 9.2014 h -2.8246 v -3.5967 h -5.7588 z m 14.5804,-3.7442 h 3.5356 l -1.7867,-3.2571 z m -1.9597,3.7442 h -3.0651 l 5.0248,-9.2014 h 3.584 l 4.9319,9.2014 h -3.0841 l -0.8902,-1.5314 h -5.6048 z m 18.7511,-6.9084 h -4.4681 v 2.2486 h 4.4681 c 0.3753,0 0.639,-0.0865 0.7888,-0.2614 0.1497,-0.1753 0.2258,-0.4916 0.2258,-0.9495 0,-0.3628 -0.0803,-0.6265 -0.2407,-0.791 -0.1601,-0.1644 -0.4196,-0.2467 -0.7739,-0.2467 z m 0.1055,-2.293 c 1.4595,0 2.451,0.2172 2.9783,0.6496 0.5274,0.4325 0.7911,1.2213 0.7911,2.3668 0,0.7932 -0.1182,1.3861 -0.3522,1.7721 -0.2343,0.388 -0.6287,0.6475 -1.1793,0.7782 0.4854,0.1161 0.8501,0.3208 1.0928,0.6119 0.2427,0.2931 0.365,0.6729 0.365,1.139 v 1.8838 h -2.812 v -1.4027 c 0,-0.363 -0.0843,-0.6119 -0.2553,-0.7468 -0.1708,-0.1371 -0.5083,-0.2046 -1.0102,-0.2046 h -4.1918 v 2.3541 h -2.8182 v -9.2014 z m 11.5743,9.2014 h -2.8056 v -6.9464 h -3.8497 v -2.255 h 10.505 v 2.255 h -3.8497 z m 7.9107,0 h -2.8056 v -9.2014 h 2.8056 v 3.3794 h 5.7588 v -3.3794 h 2.8246 v 9.2014 h -2.8246 v -3.5967 h -5.7588 z"
           style="fill:#ffffff;fill-rule:evenodd"
           id="path321"
           inkscape:connector-curvature="0" />
        <path
           d="m 438.4563,790.5792 v -5.1614 h 1.9468 c 0.3425,0 0.6045,0.0168 0.7849,0.0494 0.2535,0.042 0.4661,0.1226 0.6381,0.2414 0.1705,0.1177 0.3089,0.2847 0.4134,0.4975 0.1045,0.214 0.1562,0.4483 0.1562,0.7043 0,0.4386 -0.1394,0.8111 -0.4182,1.115 -0.2799,0.303 -0.7848,0.4555 -1.5143,0.4555 h -1.3241 v 2.0983 z m 0.6828,-2.7075 h 1.3349 c 0.4412,0 0.7548,-0.0818 0.9399,-0.2464 0.1851,-0.1646 0.2775,-0.3954 0.2775,-0.6934 0,-0.2162 -0.0541,-0.4013 -0.1634,-0.555 -0.1095,-0.154 -0.2523,-0.2548 -0.4315,-0.3043 -0.1154,-0.0299 -0.3269,-0.0454 -0.6368,-0.0454 h -1.3206 z m 4.1373,2.7075 v -5.1614 h 2.2882 c 0.4604,0 0.81,0.0469 1.049,0.1393 0.2392,0.0927 0.4302,0.2561 0.5746,0.4903 0.1428,0.2355 0.2137,0.4953 0.2137,0.7787 0,0.3668 -0.1176,0.6742 -0.3556,0.9255 -0.2367,0.2511 -0.6032,0.411 -1.0984,0.4794 0.1816,0.0865 0.3185,0.1718 0.4122,0.2573 0.1996,0.1826 0.3882,0.4122 0.5674,0.686 l 0.8975,1.4049 h -0.8592 l -0.6826,-1.0742 c -0.1994,-0.3089 -0.364,-0.5469 -0.494,-0.7103 -0.1285,-0.1648 -0.2439,-0.28 -0.346,-0.345 -0.102,-0.0659 -0.2056,-0.1117 -0.3114,-0.1381 -0.078,-0.0156 -0.2041,-0.024 -0.3808,-0.024 h -0.792 v 2.2916 z m 0.6826,-2.8829 h 1.4687 c 0.3111,0 0.5562,-0.0324 0.7317,-0.0974 0.1767,-0.0648 0.3101,-0.1683 0.4013,-0.3099 0.0915,-0.1419 0.1372,-0.2958 0.1372,-0.4629 0,-0.2439 -0.0878,-0.4445 -0.2657,-0.602 -0.1767,-0.1574 -0.4567,-0.2355 -0.84,-0.2355 h -1.6332 z m 4.6304,2.8829 v -5.1614 h 0.6825 v 5.1614 z m 1.8794,0 v -5.1614 h 0.7005 l 2.7113,4.0523 v -4.0523 h 0.6548 v 5.1614 h -0.7006 l -2.7109,-4.0558 v 4.0558 z m 6.528,0 v -4.552 h -1.7005 v -0.6094 h 4.0907 v 0.6094 h -1.7076 v 4.552 z m 3.2072,0 v -5.1614 h 0.6825 v 5.1614 z m 1.8794,0 v -5.1614 h 0.7006 l 2.7112,4.0523 v -4.0523 h 0.6549 v 5.1614 h -0.7006 l -2.711,-4.0558 v 4.0558 z m 7.6299,-2.0249 v -0.6045 l 2.1859,-0.004 v 1.9143 c -0.3351,0.2679 -0.6814,0.4688 -1.0382,0.6044 -0.3569,0.1347 -0.7236,0.2019 -1.0985,0.2019 -0.5071,0 -0.9685,-0.1082 -1.3819,-0.3257 -0.4147,-0.2162 -0.727,-0.531 -0.9386,-0.9408 -0.2115,-0.4112 -0.3173,-0.8701 -0.3173,-1.3772 0,-0.5024 0.1058,-0.971 0.3161,-1.4061 0.2091,-0.4362 0.512,-0.7595 0.9062,-0.971 0.3942,-0.2103 0.8484,-0.3161 1.3626,-0.3161 0.3727,0 0.7103,0.0601 1.012,0.1814 0.3015,0.1204 0.5382,0.2887 0.709,0.5049 0.1718,0.2162 0.3015,0.4975 0.3917,0.8447 l -0.6166,0.1695 c -0.0781,-0.2632 -0.1742,-0.4698 -0.2884,-0.62 -0.1151,-0.1503 -0.28,-0.2704 -0.4937,-0.3606 -0.2128,-0.0902 -0.4508,-0.1359 -0.7103,-0.1359 -0.3126,0 -0.5829,0.0482 -0.81,0.1431 -0.2284,0.0949 -0.411,0.2199 -0.5516,0.3749 -0.1394,0.1552 -0.2476,0.3244 -0.3257,0.5108 -0.131,0.3185 -0.197,0.6645 -0.197,1.0384 0,0.4601 0.0793,0.8447 0.238,1.1548 0.1587,0.3099 0.3892,0.5395 0.6922,0.6897 0.3027,0.1503 0.6237,0.2259 0.9638,0.2259 0.2968,0 0.5852,-0.0576 0.8664,-0.1718 0.2825,-0.1129 0.495,-0.2342 0.6405,-0.3642 v -0.9613 z m 5.1746,2.0249 v -5.1614 h 1.0288 l 1.2208,3.6544 c 0.1129,0.3401 0.1959,0.5949 0.2463,0.7644 0.0589,-0.1876 0.1503,-0.4639 0.2753,-0.8281 l 1.2354,-3.5907 h 0.9193 v 5.1614 h -0.6586 v -4.3202 l -1.4998,4.3202 h -0.6165 l -1.4924,-4.3936 v 4.3936 z m 5.4605,0 1.9829,-5.1614 h 0.7354 l 2.1127,5.1614 h -0.7787 l -0.6022,-1.5635 h -2.1582 l -0.5661,1.5635 z m 1.4889,-2.1198 h 1.7509 l -0.5395,-1.4289 c -0.1634,-0.4337 -0.2859,-0.7908 -0.3653,-1.0708 -0.0662,0.3316 -0.1586,0.6598 -0.2787,0.9868 z m 7.5697,0.3101 0.6838,0.173 c -0.1431,0.56 -0.4014,0.9878 -0.7728,1.2833 -0.3724,0.2946 -0.8266,0.4411 -1.3651,0.4411 -0.5563,0 -1.0083,-0.1129 -1.3567,-0.3388 -0.3485,-0.2271 -0.6141,-0.5553 -0.7955,-0.9843 -0.1814,-0.4302 -0.2729,-0.8916 -0.2729,-1.3844 0,-0.5372 0.1021,-1.0058 0.3077,-1.4059 0.2054,-0.4003 0.4975,-0.7043 0.8773,-0.9121 0.3786,-0.2081 0.7955,-0.3114 1.2509,-0.3114 0.5168,0 0.9505,0.131 1.3026,0.3942 0.3522,0.2632 0.5973,0.6321 0.7355,1.1093 l -0.6717,0.1584 c -0.1201,-0.3761 -0.2933,-0.6487 -0.5214,-0.8207 -0.2274,-0.1717 -0.5133,-0.2572 -0.8593,-0.2572 -0.3966,0 -0.727,0.0951 -0.9939,0.2849 -0.2669,0.1911 -0.4542,0.4458 -0.5612,0.7666 -0.1083,0.3198 -0.1622,0.6502 -0.1622,0.9902 0,0.4399 0.0636,0.8222 0.1911,1.1502 0.1285,0.3269 0.3267,0.572 0.5973,0.7342 0.2703,0.1623 0.5622,0.2429 0.877,0.2429 0.3823,0 0.7056,-0.1107 0.9712,-0.3307 0.2654,-0.2209 0.4446,-0.5491 0.5383,-0.9828 z m 1.5455,1.8097 v -5.1614 h 0.6838 v 2.1198 h 2.6823 v -2.1198 h 0.6838 v 5.1614 h -0.6838 v -2.4322 h -2.6823 v 2.4322 z m 5.3033,0 v -5.1614 h 0.6825 v 5.1614 z m 1.8794,0 v -5.1614 h 0.7006 l 2.7112,4.0523 v -4.0523 h 0.6548 v 5.1614 h -0.7006 l -2.7109,-4.0558 v 4.0558 z m 5.2289,0 v -5.1614 h 3.7313 v 0.6094 h -3.0488 v 1.5801 h 2.8553 v 0.6057 h -2.8553 v 1.757 h 3.1689 v 0.6092 z m 4.5629,-1.6584 0.644,-0.0564 c 0.0301,0.2583 0.1011,0.4698 0.2128,0.6356 0.1117,0.1658 0.2849,0.2993 0.5192,0.4013 0.2342,0.1024 0.4987,0.1528 0.792,0.1528 0.2607,0 0.4903,-0.0386 0.6897,-0.1154 0.1995,-0.0781 0.3485,-0.1839 0.4458,-0.3186 0.0974,-0.1357 0.1466,-0.2822 0.1466,-0.4421 0,-0.1623 -0.0467,-0.3027 -0.1419,-0.4243 -0.0936,-0.1213 -0.2486,-0.2222 -0.4638,-0.304 -0.1394,-0.0541 -0.4446,-0.1381 -0.9193,-0.2523 -0.4735,-0.1141 -0.8064,-0.2212 -0.9962,-0.322 -0.2464,-0.1287 -0.4302,-0.2896 -0.5516,-0.4809 -0.1201,-0.191 -0.1804,-0.4048 -0.1804,-0.6428 0,-0.2594 0.0734,-0.5036 0.2212,-0.7295 0.1478,-0.2271 0.3643,-0.3988 0.6477,-0.5167 0.285,-0.1166 0.5998,-0.1755 0.947,-0.1755 0.3833,0 0.7199,0.0613 1.0132,0.1851 0.2919,0.1226 0.5168,0.304 0.6742,0.5432 0.1562,0.2392 0.2414,0.5108 0.2535,0.8135 l -0.6551,0.0495 c -0.0358,-0.3257 -0.1549,-0.5734 -0.3581,-0.7392 -0.2031,-0.167 -0.5021,-0.2501 -0.8988,-0.2501 -0.4134,0 -0.7139,0.0759 -0.9037,0.2271 -0.1886,0.1515 -0.2837,0.3342 -0.2837,0.5469 0,0.1864 0.0675,0.3388 0.2009,0.4579 0.132,0.1201 0.4745,0.2427 1.0298,0.3678 0.5553,0.126 0.9361,0.2355 1.1429,0.3291 0.3003,0.1394 0.5227,0.3149 0.6658,0.5264 0.1428,0.2128 0.2137,0.4579 0.2137,0.7342 0,0.2753 -0.0781,0.5336 -0.2355,0.7765 -0.1574,0.2427 -0.3833,0.4315 -0.6778,0.5671 -0.2944,0.1347 -0.626,0.2019 -0.9937,0.2019 -0.4676,0 -0.8593,-0.0672 -1.1741,-0.2043 -0.3161,-0.1357 -0.5637,-0.3401 -0.7439,-0.6141 -0.1791,-0.2726 -0.274,-0.5828 -0.2824,-0.9277 z m 7.0443,1.6584 v -5.1614 h 1.9468 c 0.3425,0 0.6045,0.0168 0.7849,0.0494 0.2535,0.042 0.4661,0.1226 0.6381,0.2414 0.1705,0.1177 0.3089,0.2847 0.4134,0.4975 0.1045,0.214 0.1562,0.4483 0.1562,0.7043 0,0.4386 -0.1394,0.8111 -0.4182,1.115 -0.2799,0.303 -0.7848,0.4555 -1.5143,0.4555 h -1.3241 v 2.0983 z m 0.6828,-2.7075 h 1.3349 c 0.4412,0 0.7548,-0.0818 0.9399,-0.2464 0.1851,-0.1646 0.2775,-0.3954 0.2775,-0.6934 0,-0.2162 -0.0541,-0.4013 -0.1634,-0.555 -0.1094,-0.154 -0.2523,-0.2548 -0.4315,-0.3043 -0.1154,-0.0299 -0.3269,-0.0454 -0.6368,-0.0454 h -1.3206 z m 5.6011,2.7075 -1.9998,-5.1614 h 0.7404 l 1.3412,3.7493 c 0.1082,0.3005 0.1981,0.583 0.2703,0.845 0.0806,-0.2813 0.173,-0.5625 0.2788,-0.845 l 1.394,-3.7493 h 0.6971 l -2.0214,5.1614 z m 4.6484,0 v -4.552 h -1.7005 v -0.6094 h 4.0907 v 0.6094 h -1.7077 v 4.552 z m 2.3899,0 v -0.7223 h 0.7224 v 0.7223 z m 3.8791,0 v -5.1614 h 0.6838 v 4.5522 h 2.5417 v 0.6092 z m 4.8177,0 v -4.552 h -1.7004 v -0.6094 h 4.0906 v 0.6094 h -1.7076 v 4.552 z m 3.0906,0 v -5.1614 h 1.7775 c 0.4014,0 0.7078,0.0252 0.9193,0.0746 0.2956,0.0672 0.5479,0.191 0.757,0.369 0.2716,0.2305 0.4759,0.5239 0.6106,0.8819 0.1357,0.3581 0.2029,0.7666 0.2029,1.227 0,0.3917 -0.0455,0.7389 -0.1381,1.0419 -0.0912,0.3027 -0.2079,0.554 -0.3522,0.7522 -0.1428,0.1982 -0.299,0.3547 -0.4698,0.4676 -0.1695,0.1142 -0.3748,0.2007 -0.6153,0.2595 -0.2414,0.0588 -0.518,0.0877 -0.8291,0.0877 z m 0.6828,-0.6092 h 1.1019 c 0.34,0 0.6079,-0.0313 0.8014,-0.0951 0.1935,-0.0635 0.3475,-0.1525 0.4626,-0.2679 0.1624,-0.1611 0.2887,-0.3798 0.3786,-0.6526 0.0902,-0.2738 0.136,-0.6045 0.136,-0.995 0,-0.5394 -0.089,-0.9541 -0.2657,-1.2437 -0.1779,-0.2909 -0.3929,-0.4844 -0.6465,-0.5828 -0.1826,-0.0709 -0.4784,-0.1057 -0.8832,-0.1057 h -1.0851 z m 4.6229,0.6092 v -0.7223 h 0.7224 v 0.7223 z"
           style="fill:#ffffff;fill-rule:evenodd"
           id="path323"
           inkscape:connector-curvature="0" />
      </g>
      <g
         transform="matrix(0.36467674,0,0,0.36467674,-356.38343,-141.65565)"
         id="Layer1013">
        <path
           inkscape:connector-curvature="0"
           id="path423"
           style="fill:#e30079;fill-rule:evenodd"
           d="m 1022.7315,806.6135 c -0.7566,0.0707 -1.5229,0.1077 -2.2981,0.1077 -13.4761,0 -24.4007,-10.9246 -24.4007,-24.4008 0,-1.4264 0.1236,-2.8239 0.3585,-4.1833 3.8586,-2.1483 8.1252,-3.6522 12.6544,-4.3656 -0.7744,1.0588 -1.5223,2.1169 -2.239,3.172 -3.1899,4.6958 -6.5072,12.51 -1.0374,16.9312 3.3249,2.6874 9.3737,1.8131 14.5971,1.7577 14.8037,-0.157 11.414,5.0836 2.3652,10.9811 z" />
        <path
           inkscape:connector-curvature="0"
           id="path425"
           style="fill:#009fd9;fill-rule:evenodd"
           d="m 1044.4073,786.8779 c -1.7683,9.3582 -8.8786,16.8283 -18.0417,19.117 5.2429,-3.9507 10.2755,-9.0469 7.0127,-12.3316 -5.8392,-5.8785 -24.5048,0.0302 -23.5799,-6.8077 0.3861,-2.8524 4.2909,-7.8052 9.7367,-13.2985 9.9373,1.1469 18.7204,6.0808 24.8722,13.3208 z" />
        <path
           inkscape:connector-curvature="0"
           id="path427"
           style="fill:#131510;fill-rule:evenodd"
           d="m 1032.9965,761.4002 c 6.8772,4.1389 11.5468,11.5729 11.8231,20.1177 -5.7936,-5.8875 -13.4675,-9.9189 -22.0492,-11.1188 3.1767,-3.0087 6.6849,-6.0868 10.2261,-8.9989 z" />
        <path
           inkscape:connector-curvature="0"
           id="path429"
           style="fill:#ffcb00;fill-rule:evenodd"
           d="m 1020.4334,757.9197 c 0.6596,0 1.3127,0.0274 1.959,0.0788 -3.886,4.0741 -7.56,8.2668 -10.8477,12.4706 -5.3289,0.8137 -10.2978,2.7207 -14.6713,5.4849 2.8003,-10.3886 12.2866,-18.0343 23.56,-18.0343 z" />
      </g>
    </g>
  </g>
</svg>
